<svg id="Livello_1" data-name="Livello 1" xmlns="http://www.w3.org/2000/svg" viewBox="0 0 516.34 68.5">
  <polygon points="100.56 68.5 59.88 68.5 59.88 0.13 74.45 0.13 74.45 57.03 100.56 57.03 100.56 68.5" fill="#fff" fill-rule="evenodd" />
  <polygon points="338.12 0.13 338.12 11.87 324.44 11.87 324.44 68.44 309.88 68.44 309.88 11.87 296.2 11.87 296.2 0.13 338.12 0.13" fill="#fff" fill-rule="evenodd" />
  <path d="M174.6,174.92h-8.68l-2.54-8.29H139.83l-2.8,8.29H122.46l23.24-68.2h6.8Zm-15.77-20.21-7.12-21.25L144,154.71Z" fill="#fff" fill-rule="evenodd" transform="translate(-122.46 -106.48)" />
  <path d="M351.14,174.92h-8.69l-2.54-8.29H316.36l-2.8,8.29H299l23.24-68.2H329Zm-15.77-20.21-7.12-21.25-7.71,21.25Z" fill="#fff" fill-rule="evenodd" transform="translate(-122.46 -106.48)" />
  <path d="M522.48,174.86h-8.69l-2.54-8.29H487.7l-2.8,8.29H470.34l23.23-68.2h6.81Zm-15.77-20.2-7.12-21.26-7.71,21.26Z" fill="#fff" fill-rule="evenodd" transform="translate(-122.46 -106.48)" />
  <path d="M638.8,174.86h-8.69l-2.54-8.29H604l-2.8,8.29H586.66l23.24-68.2h6.8ZM623,154.66l-7.12-21.26-7.71,21.26Z" fill="#fff" fill-rule="evenodd" transform="translate(-122.46 -106.48)" />
  <polygon points="274.68 0.05 286.55 0.05 286.55 68.36 276.53 68.36 253.03 26.41 253.03 68.44 238.47 68.44 238.47 0.23 255.59 0.23 274.61 34.21 274.68 0.05" fill="#fff" fill-rule="evenodd" />
  <path d="M265,162a21.22,21.22,0,1,1,0-42.43,21.6,21.6,0,0,1,14.18,5.29l8.31-8.31A33.63,33.63,0,0,0,276.17,109a34.42,34.42,0,0,0-12.85-2.51A34.77,34.77,0,0,0,250.43,109a33.4,33.4,0,0,0-11.35,7.54,34.48,34.48,0,0,0-7.4,37.28,34.79,34.79,0,0,0,7.4,11.12,32.81,32.81,0,0,0,11.31,7.49,35,35,0,0,0,25.83,0,33.09,33.09,0,0,0,11.26-7.49l-8.24-8.3A21.59,21.59,0,0,1,265,162Z" fill="#fff" fill-rule="evenodd" transform="translate(-122.46 -106.48)" />
  <path d="M576.75,174.85h-16l-11-17.68c-.81.12-1.61.22-2.42.28a16.46,16.46,0,0,1-3.07.06v17.41H532.34V106.61H544.2A34.24,34.24,0,0,1,555.8,109a30.46,30.46,0,0,1,9,5.49,25.54,25.54,0,0,1,6.05,8,22.38,22.38,0,0,1,2.18,9.76,22.62,22.62,0,0,1-2.33,10.18c-1.55,3.13-6.14,7.76-8.94,10Zm-16.16-42.16a8.32,8.32,0,0,0-1.27-4.47,13.37,13.37,0,0,0-3.56-3.91,18.75,18.75,0,0,0-5.26-2.76,21.62,21.62,0,0,0-6.3-1.16v25.33a21.29,21.29,0,0,0,6.3-1.16,18.73,18.73,0,0,0,5.26-2.75,13,13,0,0,0,3.56-4A10.8,10.8,0,0,0,560.59,132.69Z" fill="#fff" fill-rule="evenodd" transform="translate(-122.46 -106.48)" />
</svg>